<mxfile host="app.diagrams.net" modified="2021-12-10T02:29:58.427Z" agent="5.0 (Windows NT 10.0; Win64; x64) AppleWebKit/537.36 (KHTML, like Gecko) Chrome/96.0.4664.93 Safari/537.36" etag="IvBVHHFoGPYzwG8uN2lY" version="14.9.8" type="github">
  <diagram name="Page-1" id="42789a77-a242-8287-6e28-9cd8cfd52e62">
    <mxGraphModel dx="1303" dy="748" grid="1" gridSize="10" guides="1" tooltips="1" connect="1" arrows="1" fold="1" page="1" pageScale="1" pageWidth="1100" pageHeight="850" background="none" math="0" shadow="0">
      <root>
        <mxCell id="0" />
        <mxCell id="1" parent="0" />
        <mxCell id="C3yApX0in2niukZtIa0Q-1" value="" style="edgeStyle=none;rounded=0;jumpStyle=none;html=1;shadow=0;labelBackgroundColor=none;startArrow=none;startFill=0;endArrow=classic;endFill=1;jettySize=auto;orthogonalLoop=1;strokeColor=#2F5B7C;strokeWidth=3;fontFamily=Helvetica;fontSize=16;fontColor=#23445D;spacing=5;" edge="1" parent="1" source="C3yApX0in2niukZtIa0Q-5" target="C3yApX0in2niukZtIa0Q-20">
          <mxGeometry relative="1" as="geometry" />
        </mxCell>
        <mxCell id="C3yApX0in2niukZtIa0Q-2" value="" style="edgeStyle=none;rounded=0;jumpStyle=none;html=1;shadow=0;labelBackgroundColor=none;startArrow=none;startFill=0;endArrow=classic;endFill=1;jettySize=auto;orthogonalLoop=1;strokeColor=#2F5B7C;strokeWidth=3;fontFamily=Helvetica;fontSize=16;fontColor=#23445D;spacing=5;" edge="1" parent="1" source="C3yApX0in2niukZtIa0Q-5" target="C3yApX0in2niukZtIa0Q-27">
          <mxGeometry relative="1" as="geometry" />
        </mxCell>
        <mxCell id="C3yApX0in2niukZtIa0Q-3" value="" style="edgeStyle=none;rounded=0;jumpStyle=none;html=1;shadow=0;labelBackgroundColor=none;startArrow=none;startFill=0;endArrow=classic;endFill=1;jettySize=auto;orthogonalLoop=1;strokeColor=#2F5B7C;strokeWidth=3;fontFamily=Helvetica;fontSize=16;fontColor=#23445D;spacing=5;" edge="1" parent="1" source="C3yApX0in2niukZtIa0Q-5" target="C3yApX0in2niukZtIa0Q-16">
          <mxGeometry relative="1" as="geometry" />
        </mxCell>
        <mxCell id="C3yApX0in2niukZtIa0Q-4" value="" style="edgeStyle=none;rounded=0;jumpStyle=none;html=1;shadow=0;labelBackgroundColor=none;startArrow=none;startFill=0;endArrow=classic;endFill=1;jettySize=auto;orthogonalLoop=1;strokeWidth=3;fontFamily=Helvetica;fontSize=16;fontColor=#23445D;spacing=5;entryX=1;entryY=0.5;entryDx=0;entryDy=0;" edge="1" parent="1" source="C3yApX0in2niukZtIa0Q-5" target="C3yApX0in2niukZtIa0Q-40">
          <mxGeometry relative="1" as="geometry">
            <mxPoint x="490" y="535" as="targetPoint" />
          </mxGeometry>
        </mxCell>
        <mxCell id="C3yApX0in2niukZtIa0Q-5" value="OpenGL" style="rounded=1;whiteSpace=wrap;html=1;shadow=0;labelBackgroundColor=none;strokeColor=none;strokeWidth=3;fillColor=#2F5B7C;fontFamily=Helvetica;fontSize=16;fontColor=#FFFFFF;align=center;fontStyle=1;spacing=5;arcSize=7;perimeterSpacing=2;" vertex="1" parent="1">
          <mxGeometry x="591" y="500" width="150" height="70" as="geometry" />
        </mxCell>
        <mxCell id="C3yApX0in2niukZtIa0Q-13" value="" style="edgeStyle=none;rounded=0;jumpStyle=none;html=1;shadow=0;labelBackgroundColor=none;startArrow=none;startFill=0;endArrow=classic;endFill=1;jettySize=auto;orthogonalLoop=1;strokeColor=#1699D3;strokeWidth=3;fontFamily=Helvetica;fontSize=14;fontColor=#FFFFFF;spacing=5;" edge="1" parent="1" source="C3yApX0in2niukZtIa0Q-16" target="C3yApX0in2niukZtIa0Q-19">
          <mxGeometry relative="1" as="geometry" />
        </mxCell>
        <mxCell id="C3yApX0in2niukZtIa0Q-14" value="" style="edgeStyle=none;rounded=0;jumpStyle=none;html=1;shadow=0;labelBackgroundColor=none;startArrow=none;startFill=0;endArrow=classic;endFill=1;jettySize=auto;orthogonalLoop=1;strokeColor=#1699D3;strokeWidth=3;fontFamily=Helvetica;fontSize=14;fontColor=#FFFFFF;spacing=5;" edge="1" parent="1" source="C3yApX0in2niukZtIa0Q-16" target="C3yApX0in2niukZtIa0Q-18">
          <mxGeometry relative="1" as="geometry" />
        </mxCell>
        <mxCell id="C3yApX0in2niukZtIa0Q-15" value="" style="edgeStyle=none;rounded=0;jumpStyle=none;html=1;shadow=0;labelBackgroundColor=none;startArrow=none;startFill=0;endArrow=classic;endFill=1;jettySize=auto;orthogonalLoop=1;strokeColor=#1699D3;strokeWidth=3;fontFamily=Helvetica;fontSize=14;fontColor=#FFFFFF;spacing=5;" edge="1" parent="1" source="C3yApX0in2niukZtIa0Q-16" target="C3yApX0in2niukZtIa0Q-17">
          <mxGeometry relative="1" as="geometry" />
        </mxCell>
        <mxCell id="C3yApX0in2niukZtIa0Q-16" value="Objects" style="rounded=1;whiteSpace=wrap;html=1;shadow=0;labelBackgroundColor=none;strokeColor=none;strokeWidth=3;fillColor=#1699d3;fontFamily=Helvetica;fontSize=14;fontColor=#FFFFFF;align=center;spacing=5;fontStyle=1;arcSize=7;perimeterSpacing=2;" vertex="1" parent="1">
          <mxGeometry x="591" y="660" width="150" height="60" as="geometry" />
        </mxCell>
        <mxCell id="C3yApX0in2niukZtIa0Q-17" value="state" style="rounded=1;whiteSpace=wrap;html=1;shadow=0;labelBackgroundColor=none;strokeColor=none;strokeWidth=3;fillColor=#64bbe2;fontFamily=Helvetica;fontSize=14;fontColor=#FFFFFF;align=center;spacing=5;arcSize=7;perimeterSpacing=2;" vertex="1" parent="1">
          <mxGeometry x="791" y="770" width="150" height="60" as="geometry" />
        </mxCell>
        <mxCell id="C3yApX0in2niukZtIa0Q-18" value="C structs" style="rounded=1;whiteSpace=wrap;html=1;shadow=0;labelBackgroundColor=none;strokeColor=none;strokeWidth=3;fillColor=#64bbe2;fontFamily=Helvetica;fontSize=14;fontColor=#FFFFFF;align=center;spacing=5;arcSize=7;perimeterSpacing=2;" vertex="1" parent="1">
          <mxGeometry x="591" y="836" width="150" height="60" as="geometry" />
        </mxCell>
        <mxCell id="C3yApX0in2niukZtIa0Q-19" value="abstraction" style="rounded=1;whiteSpace=wrap;html=1;shadow=0;labelBackgroundColor=none;strokeColor=none;strokeWidth=3;fillColor=#64bbe2;fontFamily=Helvetica;fontSize=14;fontColor=#FFFFFF;align=center;spacing=5;arcSize=7;perimeterSpacing=2;" vertex="1" parent="1">
          <mxGeometry x="391" y="770" width="150" height="60" as="geometry" />
        </mxCell>
        <mxCell id="C3yApX0in2niukZtIa0Q-20" value="What" style="rounded=1;whiteSpace=wrap;html=1;shadow=0;labelBackgroundColor=none;strokeColor=none;strokeWidth=3;fillColor=#F08705;fontFamily=Helvetica;fontSize=14;fontColor=#FFFFFF;align=center;spacing=5;fontStyle=1;arcSize=7;perimeterSpacing=2;" vertex="1" parent="1">
          <mxGeometry x="591" y="320" width="150" height="60" as="geometry" />
        </mxCell>
        <mxCell id="C3yApX0in2niukZtIa0Q-21" value="Libary" style="rounded=1;whiteSpace=wrap;html=1;shadow=0;labelBackgroundColor=none;strokeColor=none;strokeWidth=3;fillColor=#f5af58;fontFamily=Helvetica;fontSize=14;fontColor=#FFFFFF;align=center;spacing=5;arcSize=7;perimeterSpacing=2;" vertex="1" parent="1">
          <mxGeometry x="791" y="230" width="150" height="60" as="geometry" />
        </mxCell>
        <mxCell id="C3yApX0in2niukZtIa0Q-22" value="" style="edgeStyle=none;rounded=0;jumpStyle=none;html=1;shadow=0;labelBackgroundColor=none;startArrow=none;startFill=0;endArrow=classic;endFill=1;jettySize=auto;orthogonalLoop=1;strokeColor=#F08705;strokeWidth=3;fontFamily=Helvetica;fontSize=14;fontColor=#FFFFFF;spacing=5;" edge="1" parent="1" source="C3yApX0in2niukZtIa0Q-20" target="C3yApX0in2niukZtIa0Q-21">
          <mxGeometry relative="1" as="geometry" />
        </mxCell>
        <mxCell id="C3yApX0in2niukZtIa0Q-23" value="Specificaiton" style="rounded=1;whiteSpace=wrap;html=1;shadow=0;labelBackgroundColor=none;strokeColor=none;strokeWidth=3;fillColor=#f5af58;fontFamily=Helvetica;fontSize=14;fontColor=#FFFFFF;align=center;spacing=5;arcSize=7;perimeterSpacing=2;" vertex="1" parent="1">
          <mxGeometry x="591" y="170" width="150" height="60" as="geometry" />
        </mxCell>
        <mxCell id="C3yApX0in2niukZtIa0Q-24" value="" style="edgeStyle=none;rounded=0;jumpStyle=none;html=1;shadow=0;labelBackgroundColor=none;startArrow=none;startFill=0;endArrow=classic;endFill=1;jettySize=auto;orthogonalLoop=1;strokeColor=#F08705;strokeWidth=3;fontFamily=Helvetica;fontSize=14;fontColor=#FFFFFF;spacing=5;" edge="1" parent="1" source="C3yApX0in2niukZtIa0Q-20" target="C3yApX0in2niukZtIa0Q-23">
          <mxGeometry relative="1" as="geometry" />
        </mxCell>
        <mxCell id="C3yApX0in2niukZtIa0Q-25" value="CoreProfile" style="rounded=1;whiteSpace=wrap;html=1;shadow=0;labelBackgroundColor=none;strokeColor=none;strokeWidth=3;fillColor=#f5af58;fontFamily=Helvetica;fontSize=14;fontColor=#FFFFFF;align=center;spacing=5;arcSize=7;perimeterSpacing=2;" vertex="1" parent="1">
          <mxGeometry x="391" y="230" width="150" height="60" as="geometry" />
        </mxCell>
        <mxCell id="C3yApX0in2niukZtIa0Q-26" value="" style="edgeStyle=none;rounded=0;jumpStyle=none;html=1;shadow=0;labelBackgroundColor=none;startArrow=none;startFill=0;endArrow=classic;endFill=1;jettySize=auto;orthogonalLoop=1;strokeColor=#F08705;strokeWidth=3;fontFamily=Helvetica;fontSize=14;fontColor=#FFFFFF;spacing=5;" edge="1" parent="1" source="C3yApX0in2niukZtIa0Q-20" target="C3yApX0in2niukZtIa0Q-25">
          <mxGeometry relative="1" as="geometry" />
        </mxCell>
        <mxCell id="C3yApX0in2niukZtIa0Q-27" value="State Machine" style="rounded=1;whiteSpace=wrap;html=1;shadow=0;labelBackgroundColor=none;strokeColor=none;strokeWidth=3;fillColor=#12aab5;fontFamily=Helvetica;fontSize=14;fontColor=#FFFFFF;align=center;spacing=5;fontStyle=1;arcSize=7;perimeterSpacing=2;" vertex="1" parent="1">
          <mxGeometry x="891" y="504.9999999999999" width="150" height="60" as="geometry" />
        </mxCell>
        <mxCell id="C3yApX0in2niukZtIa0Q-37" value="" style="edgeStyle=orthogonalEdgeStyle;rounded=0;orthogonalLoop=1;jettySize=auto;html=1;" edge="1" parent="1" source="C3yApX0in2niukZtIa0Q-28" target="C3yApX0in2niukZtIa0Q-36">
          <mxGeometry relative="1" as="geometry" />
        </mxCell>
        <mxCell id="C3yApX0in2niukZtIa0Q-28" value="Context" style="rounded=1;whiteSpace=wrap;html=1;shadow=0;labelBackgroundColor=none;strokeColor=none;strokeWidth=3;fillColor=#61c6ce;fontFamily=Helvetica;fontSize=14;fontColor=#FFFFFF;align=center;spacing=5;fontStyle=0;arcSize=7;perimeterSpacing=2;" vertex="1" parent="1">
          <mxGeometry x="1041" y="350" width="150" height="60" as="geometry" />
        </mxCell>
        <mxCell id="C3yApX0in2niukZtIa0Q-29" value="" style="edgeStyle=none;rounded=1;jumpStyle=none;html=1;shadow=0;labelBackgroundColor=none;startArrow=none;startFill=0;jettySize=auto;orthogonalLoop=1;strokeColor=#12AAB5;strokeWidth=3;fontFamily=Helvetica;fontSize=14;fontColor=#FFFFFF;spacing=5;fontStyle=1;fillColor=#b0e3e6;" edge="1" parent="1" source="C3yApX0in2niukZtIa0Q-27" target="C3yApX0in2niukZtIa0Q-28">
          <mxGeometry relative="1" as="geometry" />
        </mxCell>
        <mxCell id="C3yApX0in2niukZtIa0Q-30" value="State using" style="rounded=1;whiteSpace=wrap;html=1;shadow=0;labelBackgroundColor=none;strokeColor=none;strokeWidth=3;fillColor=#61c6ce;fontFamily=Helvetica;fontSize=14;fontColor=#FFFFFF;align=center;spacing=5;fontStyle=0;arcSize=7;perimeterSpacing=2;" vertex="1" parent="1">
          <mxGeometry x="1101" y="554" width="150" height="60" as="geometry" />
        </mxCell>
        <mxCell id="C3yApX0in2niukZtIa0Q-31" value="" style="edgeStyle=none;rounded=1;jumpStyle=none;html=1;shadow=0;labelBackgroundColor=none;startArrow=none;startFill=0;jettySize=auto;orthogonalLoop=1;strokeColor=#12AAB5;strokeWidth=3;fontFamily=Helvetica;fontSize=14;fontColor=#FFFFFF;spacing=5;fontStyle=1;fillColor=#b0e3e6;" edge="1" parent="1" source="C3yApX0in2niukZtIa0Q-27" target="C3yApX0in2niukZtIa0Q-30">
          <mxGeometry relative="1" as="geometry" />
        </mxCell>
        <mxCell id="C3yApX0in2niukZtIa0Q-32" value="State changing" style="rounded=1;whiteSpace=wrap;html=1;shadow=0;labelBackgroundColor=none;strokeColor=none;strokeWidth=3;fillColor=#61c6ce;fontFamily=Helvetica;fontSize=14;fontColor=#FFFFFF;align=center;spacing=5;fontStyle=0;arcSize=7;perimeterSpacing=2;" vertex="1" parent="1">
          <mxGeometry x="1101" y="444" width="150" height="60" as="geometry" />
        </mxCell>
        <mxCell id="C3yApX0in2niukZtIa0Q-33" value="" style="edgeStyle=none;rounded=1;jumpStyle=none;html=1;shadow=0;labelBackgroundColor=none;startArrow=none;startFill=0;jettySize=auto;orthogonalLoop=1;strokeColor=#12AAB5;strokeWidth=3;fontFamily=Helvetica;fontSize=14;fontColor=#FFFFFF;spacing=5;fontStyle=1;fillColor=#b0e3e6;" edge="1" parent="1" source="C3yApX0in2niukZtIa0Q-27" target="C3yApX0in2niukZtIa0Q-32">
          <mxGeometry relative="1" as="geometry" />
        </mxCell>
        <mxCell id="C3yApX0in2niukZtIa0Q-36" value="variables" style="rounded=1;whiteSpace=wrap;html=1;shadow=0;labelBackgroundColor=none;strokeColor=none;strokeWidth=3;fillColor=#61c6ce;fontFamily=Helvetica;fontSize=14;fontColor=#FFFFFF;align=center;spacing=5;fontStyle=0;arcSize=7;perimeterSpacing=2;" vertex="1" parent="1">
          <mxGeometry x="1251" y="350" width="150" height="60" as="geometry" />
        </mxCell>
        <mxCell id="C3yApX0in2niukZtIa0Q-40" value="Extensions" style="rounded=1;whiteSpace=wrap;html=1;shadow=0;labelBackgroundColor=none;strokeColor=none;strokeWidth=3;fillColor=#61c6ce;fontFamily=Helvetica;fontSize=14;fontColor=#FFFFFF;align=center;spacing=5;fontStyle=0;arcSize=7;perimeterSpacing=2;" vertex="1" parent="1">
          <mxGeometry x="300" y="504" width="150" height="60" as="geometry" />
        </mxCell>
      </root>
    </mxGraphModel>
  </diagram>
</mxfile>
